<svg viewBox="0 0 165 172"
    fill="none"
    xmlns="http://www.w3.org/2000/svg">
    <circle
        opacity=".8"
        cx="91"
        cy="98"
        r="74"
        fill="url(#a)" />
    <path
        fill-rule="evenodd"
        clip-rule="evenodd"
        d="M71.997 5.326a10.02 10.02 0 0 0-9.994 0l-53 30.506a9.986 9.986 0 0 0-2.397 1.925l22.217 12.73a7.995 7.995 0 0 1 1.862-1.486l32.31-18.685a8 8 0 0 1 8.01 0l32.31 18.685a7.974 7.974 0 0 1 1.862 1.486l22.217-12.73a9.992 9.992 0 0 0-2.397-1.925l-53-30.506Zm57.447 35.866L107.077 54.01c.153.62.233 1.263.233 1.917v35.587a8 8 0 0 1-3.916 6.88l-32.47 19.278a8.02 8.02 0 0 1-1.924.824v25.261a10.028 10.028 0 0 0 2.856-1.14l53.24-31.462A9.971 9.971 0 0 0 130 102.57V44.474a9.95 9.95 0 0 0-.556-3.282ZM4 44.474c0-1.134.193-2.242.556-3.282L26.923 54.01a7.994 7.994 0 0 0-.233 1.917v37.266a8 8 0 0 0 4.158 7.017l32.15 17.6c.638.35 1.312.606 2.002.769v25.276a10.012 10.012 0 0 1-3.034-1.066L9.206 114.04A9.973 9.973 0 0 1 4 105.284v-60.81ZM60.004 1.87a14.028 14.028 0 0 1 13.992 0l53 30.507A13.962 13.962 0 0 1 134 44.474v58.096c0 4.935-2.61 9.503-6.865 12.018l-53.24 31.462a14.028 14.028 0 0 1-13.846.241l-52.76-28.749A13.96 13.96 0 0 1 0 105.284v-60.81c0-4.991 2.67-9.604 7.004-12.098l53-30.507ZM42.796 56.974 63.96 44.756a6.087 6.087 0 0 1 6.082 0l21.163 12.218a5.992 5.992 0 0 1 3.005 5.186v23.307a5.99 5.99 0 0 1-2.946 5.15L69.98 103.235a6.085 6.085 0 0 1-6.018.105l-21.041-11.5a5.993 5.993 0 0 1-3.13-5.256V62.16a5.992 5.992 0 0 1 3.006-5.186Z"
        fill="#fff" />
    <defs>
        <radialGradient
            id="a"
            cx="0"
            cy="0"
            r="1"
            gradientUnits="userSpaceOnUse"
            gradientTransform="matrix(0 74 -74 0 91 98)">
            <stop stop-color="#1162FF" />
            <stop
                offset="1"
                stop-color="#1162FF"
                stop-opacity="0" />
        </radialGradient>
    </defs>
</svg>